<?xml version="1.0" encoding="UTF-8"?><!DOCTYPE svg PUBLIC "-//W3C//DTD SVG 1.1//EN" "http://www.w3.org/Graphics/SVG/1.1/DTD/svg11.dtd"><svg xmlns="http://www.w3.org/2000/svg"><symbol id="check" viewBox="0 0 448 448"><path fill="#222" d="M341.333 192.96v188.16H42.667V82.453h266.026l46.934-42.666H0v384h384v-270.08z"/><path fill="#222" d="M417.493 24.213L186.027 234.56l-72.534-72.32-28.16 28.16 102.614 102.613L448 54.08z"/></symbol><symbol id="team" viewBox="0 0 398.158 398.158"><ellipse cx="68.622" cy="280.63" rx="29.673" ry="29.026" fill="#fff"/><path d="M70.497 333.834h-4.331c-32.129 0-58.699 25.988-58.699 58.117h122.376c-.001-32.193-26.57-58.117-59.346-58.117z" fill="#9d9c9c"/><ellipse cx="199.079" cy="280.63" rx="29.673" ry="29.026" fill="#fff"/><path d="M200.954 333.834h-4.331c-32.776 0-59.345 25.988-59.345 58.117h122.376c.645-32.193-25.989-58.117-58.7-58.117z" fill="#e1e6e9"/><ellipse cx="329.535" cy="280.63" rx="29.673" ry="29.026" fill="#fff"/><g fill="#333333"><path d="M329.535 316.509c-19.782 0-35.879-16.097-35.879-35.232 0-19.782 16.097-35.232 35.879-35.232 19.782 0 35.879 16.097 35.879 35.232-.064 19.135-16.097 35.232-35.879 35.232zm0-58.764c-12.994 0-23.467 10.537-23.467 22.885 0 12.347 10.537 23.467 23.467 23.467s23.467-10.537 23.467-22.885c0-12.929-10.473-23.467-23.467-23.467zM199.079 316.509c-19.782 0-35.879-16.097-35.879-35.232 0-19.782 16.097-35.232 35.879-35.232s35.879 16.097 35.879 35.232-16.097 35.232-35.879 35.232zm0-58.764c-12.994 0-23.467 10.537-23.467 22.885 0 12.347 10.537 23.467 23.467 23.467 12.929 0 23.467-10.537 23.467-22.885-.001-12.929-10.473-23.467-23.467-23.467zM68.622 316.509c-19.782 0-35.879-16.097-35.879-35.232 0-19.782 16.097-35.232 35.879-35.232s35.879 16.097 35.879 35.232-16.097 35.232-35.879 35.232zm0-58.764c-12.994 0-23.467 10.537-23.467 22.885 0 12.347 10.537 23.467 23.467 23.467s23.467-10.537 23.467-22.885c.065-12.929-10.473-23.467-23.467-23.467z"/></g><path d="M331.345 333.834h-4.331c-32.776 0-59.345 25.988-59.345 58.117h123.022c0-32.193-26.57-58.117-59.346-58.117z" fill="#9d9c9c"/><g fill="#333333"><path d="M331.345 327.628h-4.331c-30.319 0-56.242 21.01-63.03 48.808-6.788-27.798-32.776-48.808-63.03-48.808h-4.331c-30.319 0-56.242 21.01-63.03 48.808-6.788-27.798-32.776-48.808-63.03-48.808H66.23c-35.943 0-64.97 28.444-64.97 64.323v6.206h395.636v-6.206c.001-35.878-29.025-64.323-65.551-64.323zm-317.09 58.117c3.103-25.988 25.341-45.77 52.558-45.77h4.331c27.216 0 49.455 20.428 52.558 45.77H14.255zm130.456 0c3.103-25.988 25.341-45.77 52.558-45.77h4.331c27.216 0 49.455 20.428 52.558 45.77H144.711zm130.392 0c3.103-25.988 25.341-45.77 52.558-45.77h4.331c27.216 0 49.455 20.428 52.558 45.77H275.103zM161.972 85.915l9.309 8.663 23.466-23.467h8.663l23.467 23.467 9.309-8.663-37.107-36.46zM192.873 157.608h12.347v12.347h-12.347zM192.873 132.913h12.347v12.347h-12.347zM192.873 182.368h12.347v12.347h-12.347zM192.873 207.063h12.347v12.347h-12.347z"/><path d="M192.873 83.459h12.347v12.347h-12.347zM192.873 108.154h12.347v12.347h-12.347zM31.58 147.717l8.598 8.663 24.695-24.113h7.499l24.113 24.113 8.598-8.663-36.461-36.46zM62.481 194.133h12.347v12.347H62.481zM62.481 218.828h12.347v6.206H62.481zM62.481 169.374h12.347v12.347H62.481z"/><path d="M62.481 144.679h12.347v12.347H62.481zM329.535 0l-36.46 36.461 8.598 8.662 24.113-24.113h7.499l24.695 24.113 8.598-8.662zM323.329 132.267h12.347v12.347h-12.347zM323.329 157.026h12.347v12.347h-12.347zM323.329 181.721h12.347v12.347h-12.347zM323.329 206.481h12.347v12.347h-12.347zM323.329 58.117h12.347v12.347h-12.347z"/><path d="M323.329 33.358h12.347v12.347h-12.347zM323.329 82.812h12.347v12.347h-12.347zM323.329 107.572h12.347v12.347h-12.347z"/></g></symbol><symbol id="teamwork" viewBox="0 0 397.446 397.446"><path d="M195.943 26.57h70.465v67.362c0-6.788-6.788-12.994-15.451-12.994-4.331 0-8.21 1.422-10.99 3.685-2.78 2.327-4.461 5.56-4.461 9.244v34.586h-39.564V26.57z" fill="#e1e6e9"/><path d="M360.404 196.525v-17.907l29.026-38.917v-108.8c0-6.788-6.788-12.994-15.451-12.994s-15.451 5.56-15.451 12.994v-6.788c0-6.788-6.788-12.994-15.451-12.994s-15.451 5.56-15.451 12.994v-4.331c.646-7.434-6.206-12.994-14.869-12.994s-15.451 5.56-15.451 12.994v4.331c0-6.788-6.788-12.994-15.451-12.994s-15.451 5.56-15.451 12.994v69.883c0-6.788-6.788-12.994-15.45-12.994-8.663 0-15.451 5.56-15.451 12.994v50.101l37.107 34.004v17.907" fill="#fff"/><path d="M369.067 196.525v69.883h-66.78c6.788 0 12.994-6.788 12.994-15.45 0-4.331-1.422-8.21-3.685-10.99-2.327-2.78-5.56-4.461-9.244-4.461H267.12v-38.982h101.947z" fill="#9d9c9c"/><path fill="#333333" d="M339.394 219.41h12.347v12.347h-12.347z"/><path d="M199.693 360.986H217.6l38.917 29.026h108.8c6.788 0 12.994-6.788 12.994-15.451s-5.56-15.451-12.994-15.451h6.788c6.788 0 12.994-6.788 12.994-15.451s-5.56-15.451-12.994-15.451h4.331c6.788 0 12.994-6.788 12.994-15.451s-5.56-15.451-12.994-15.451h-4.331c6.788 0 12.994-6.788 12.994-15.451s-5.56-15.451-12.994-15.451h-69.818c6.788 0 12.994-6.788 12.994-15.451s-5.56-15.451-12.994-15.451h-50.101l-34.004 37.107h-17.907" fill="#fff"/><path d="M199.693 267.636v102.012H129.81v-66.78c0 6.788 6.788 12.994 15.451 12.994s15.451-5.56 15.451-12.994v-35.232h38.981z" fill="#e1e6e9"/><path fill="#333333" d="M164.461 339.976h12.347v12.347h-12.347z"/><path d="M123.669 218.828v-17.907l-88.372-.646v17.907L6.206 257.099v108.8c0 6.788 6.788 12.994 15.451 12.994s15.451-6.206 15.451-12.994v6.788c0 6.788 6.788 12.994 15.451 12.994s15.451-5.56 15.451-12.994v4.331c0 6.788 6.788 12.994 15.451 12.994s15.451-5.56 15.451-12.994v-4.331c0 6.788 6.788 12.994 15.451 12.994s15.451-5.56 15.451-12.994v-69.818c0 6.788 6.788 12.994 15.451 12.994s15.451-5.56 15.451-12.994v-50.101l-37.047-33.94z" fill="#fff"/><path d="M127.935 160.711v39.564H25.988V129.81H93.35c-6.788 0-12.994 6.788-12.994 15.451s5.56 15.451 12.994 15.451h34.585z" fill="#9d9c9c"/><path fill="#333333" d="M43.895 165.042h12.347v12.347H43.895z"/><path d="M178.036 35.814L139.119 6.788h-108.8c-6.788 0-12.347 6.788-12.347 15.451s5.56 15.451 12.347 15.451h-6.853c-6.788 0-12.994 6.788-12.994 14.804 0 8.663 5.56 15.45 12.994 15.45h-4.331c-7.434 0-12.994 6.788-12.994 15.451s5.624 15.451 12.994 15.451h4.331c-6.788 0-12.994 6.788-12.994 15.451s5.56 15.451 12.994 15.451h69.883c-6.788 0-12.994 6.788-12.994 15.451s5.56 15.451 12.994 15.451h50.101l34.004-37.107h17.907V37.042l-17.325-1.228z" fill="#fff"/><g fill="#333333"><path d="M395.636 141.511V30.901c0-4.913-2.457-10.537-6.788-13.576-7.434-6.206-18.554-6.788-26.57-1.875-3.685-6.206-10.537-9.891-19.135-9.891-4.978 0-9.244 1.228-12.994 3.685-3.103-5.56-9.891-8.663-17.325-8.663-7.434 0-14.222 3.103-17.907 8.663-3.685-2.457-8.016-3.685-12.994-3.685-10.537 0-19.135 6.788-21.01 15.451h-71.758v9.244h-9.891L141.576.582H30.319c-10.537 0-18.554 9.891-18.554 21.657 0 4.331 1.228 8.016 3.103 11.766A21.54 21.54 0 0 0 4.331 52.558c0 4.913 1.228 9.244 3.685 12.994C3.103 69.172 0 76.024 0 83.394c0 7.434 3.103 14.222 8.663 17.907-2.457 3.685-3.685 8.016-3.685 12.994 0 10.537 6.788 19.135 15.451 21.01v71.693h9.244v9.891L0 255.289v110.675c0 10.537 9.891 19.135 21.657 19.135 4.331 0 8.016-1.228 11.766-3.103 3.685 6.206 10.537 9.891 19.135 9.891 4.978 0 9.244-1.228 12.994-3.685 3.685 4.913 10.537 8.663 17.907 8.663 7.37 0 14.222-3.103 17.907-8.663 3.685 2.457 8.016 3.685 12.994 3.685 10.537 0 19.135-6.788 21.01-15.451h71.693v-9.244h9.891l38.917 29.026h110.675c10.537 0 19.135-9.891 19.135-21.657 0-4.331-1.228-8.016-3.103-11.766 6.206-3.685 9.891-10.537 9.891-19.135 0-4.913-1.228-9.244-3.685-12.994 4.913-3.685 8.663-10.537 8.663-17.907 0-7.434-3.103-14.222-8.016-17.907 2.457-3.685 3.685-8.016 3.685-12.994 0-10.537-6.788-19.135-15.451-21.01v-71.693h-9.244v-9.891l27.215-37.753zM202.15 32.711h58.699v43.895c-2.457-1.228-6.206-1.875-9.244-1.875-11.766 0-21.657 8.663-21.657 19.135v28.444H202.15V32.711zM23.467 122.958c-3.685 0-6.788-4.331-6.788-9.244s3.103-9.244 6.788-9.244h40.792V92.121H19.136c-3.685 0-6.788-4.331-6.788-9.244 0-4.978 3.103-9.244 6.788-9.244h45.123V61.285H23.467c-3.685 0-6.788-4.331-6.788-9.244 0-4.331 3.103-8.016 6.788-8.016h40.792V31.677h-33.94c-3.103 0-6.206-4.331-6.206-9.244s3.103-9.244 6.206-9.244h106.343l38.917 29.026h13.576v74.214h-14.222l-34.004 36.849h-47.58c-3.685 0-6.788-4.331-6.788-9.244s3.103-9.244 6.788-9.244h24.695v-12.35H23.467v.518zm69.882 43.313h28.444v27.798H32.129V135.37h43.895c-1.228 2.457-1.875 6.206-1.875 9.244.647 11.766 8.663 21.657 19.2 21.657zm29.027 111.256v94.578c0 3.685-4.331 6.788-9.244 6.788-4.913 0-9.244-3.103-9.244-6.788v-40.792H91.539v45.123c0 3.685-4.331 6.788-9.244 6.788-4.913 0-9.244-3.103-9.244-6.788v-45.123H60.574v40.792c0 3.685-4.331 6.788-9.244 6.788s-9.309-3.103-9.309-6.788v-40.792h-11.12v33.358c0 3.685-4.331 6.788-9.244 6.788s-9.244-3.103-9.244-6.788V258.974l29.026-38.917v-13.576h74.214v14.222l37.107 34.004v47.58c0 3.685-4.331 6.788-9.244 6.788-4.913 0-9.244-3.103-9.244-6.788v-24.76h-11.896zm71.111 86.562h-58.699v-43.895c2.457 1.228 6.206 1.875 9.244 1.875 11.766 0 21.657-8.663 21.657-19.135V274.49h27.798v89.599zM165.689 261.43v-11.766l-37.107-34.004v-9.244h6.206v-40.21h11.766l34.004-37.107h9.244v6.206h40.21v11.766l37.107 34.004v9.244h-6.206v40.21h-11.766l-34.004 37.107h-9.244v-6.206h-40.21zm206.481 12.412c3.685 0 6.788 4.331 6.788 9.244 0 2.457-.646 4.913-2.457 6.788-.646.646-2.457 2.457-4.331 2.457h-40.792v12.347h45.123c3.685 0 6.788 4.331 6.788 9.244s-3.103 9.244-6.788 9.244h-45.123v12.347h40.792c3.685 0 6.788 4.331 6.788 9.244s-3.103 9.244-6.788 9.244h-40.792v12.347h33.358c3.685 0 6.788 4.331 6.788 9.244s-3.103 9.244-6.788 9.244H258.392l-38.917-29.026h-13.576v-73.955h14.222l34.004-37.107h47.58c3.685 0 6.788 4.331 6.788 9.244s-3.103 9.244-6.788 9.244h-24.76v10.537h95.224v.069zm-69.883-43.313h-28.444v-27.798h89.665v58.699h-43.895c1.228-2.457 1.875-6.206 1.875-9.244-.648-11.766-8.664-21.657-19.201-21.657zm51.911-54.367v13.576h-74.15v-14.222l-37.107-34.004v-47.58c0-3.685 4.331-6.788 9.244-6.788 4.913 0 9.244 3.103 9.244 6.788v24.76h12.348V24.048c0-3.685 4.331-6.788 9.244-6.788s9.244 3.103 9.244 6.788V64.84h12.347V19.717c0-3.685 4.331-6.788 9.244-6.788s9.244 3.103 9.244 6.788V64.84h12.347V24.048c0-3.685 4.331-6.788 9.244-6.788 4.978 0 9.244 3.103 9.244 6.788V64.84h12.347V30.836c0-3.685 4.331-6.788 9.244-6.788 2.457 0 4.978.646 6.788 2.457-.646 1.228.646 2.457.646 4.331V137.18l-28.762 38.982z"/><path d="M218.828 44.477h12.347v12.347h-12.347z"/></g></symbol><symbol id="worldwide" viewBox="0 0 383.289 383.289"><g fill="#9d9c9c"><path d="M96.42 7.37C60.541 19.717 30.869 46.287 14.836 80.291h42.02C64.937 49.455 79.16 24.113 96.42 7.37zM14.836 205.834c16.097 34.004 45.77 59.992 81.584 72.921-17.907-16.679-32.129-42.02-40.145-72.339H14.836v-.582zM277.56 92.703h-44.541c2.457 12.994 4.331 25.988 4.913 40.21h48.226c-1.164-14.222-4.267-27.862-8.598-40.21zM272 80.356c-16.679-34.004-46.352-59.992-82.23-72.339 17.907 16.097 32.129 41.438 40.21 72.339H272zM48.259 142.804c0-17.907 1.875-34.651 4.978-50.683H9.277C3.071 107.572.033 124.832.033 142.804c0 17.907 3.103 34.586 9.244 50.683h44.477c-3.685-16.097-5.495-32.776-5.495-50.683zM69.269 205.834c6.788 24.76 17.907 45.123 31.547 59.345v-59.345H69.269zM149.624 0v80.356h68.008C205.22 35.814 179.297 4.331 149.624 0zM137.277 132.913v-40.21H66.166c-3.685 15.451-5.56 32.776-5.56 50.683s1.875 34.651 5.56 50.683h34.586v-60.574h36.461v-.582h.064zM220.671 92.703h-71.046v40.21h76.024a261.97 261.97 0 0 0-4.978-40.21zM137.277 80.356V0c-29.673 3.685-55.661 35.232-68.008 79.774h68.008v.582z"/></g><path fill="#fff" d="M118.723 151.402h258.392v225.616H118.723z"/><path d="M356.105 248.436v107.572H139.733V248.436c10.925 9.632 25.212 15.451 40.792 15.451h134.788c15.58.065 29.867-5.818 40.792-15.451z" fill="#e1e6e9"/><g fill="#fff"><path d="M205.22 118.691h85.915v32.776H205.22zM315.313 263.952H180.525c-34.004 0-61.802-27.798-61.802-61.802v-50.683h258.392v50.683c0 34.004-27.862 61.802-61.802 61.802z"/></g><g fill="#333333"><path d="M220.089 189.156h12.347v12.347h-12.347zM241.745 189.156h12.347v12.347h-12.347zM263.984 189.156h12.347v12.347h-12.347z"/></g><path fill="#fff" d="M223.192 239.192h50.101v50.101h-50.101z"/><path d="M297.341 145.261v-32.776h-98.263v32.776h-86.562v238.028h270.739V145.261h-85.914zm-85.915-20.429h73.568v20.428h-73.568v-20.428zm159.483 246.045H124.865v-129.81c12.347 17.325 32.776 29.026 55.661 29.026h35.879v25.341h62.448v-25.341h36.461c22.885 0 43.249-11.766 55.661-29.026v129.81h-.066zm-141.576-87.79v-37.689h37.689v37.689h-37.689zm141.576-80.938a55.457 55.457 0 0 1-55.661 55.661H279.37v-25.341h-62.449v25.341h-35.879a55.457 55.457 0 0 1-55.661-55.661v-44.541H370.78v44.541h.129z" fill="#333333"/></symbol></svg>